<?xml version="1.0" standalone="no"?>
<svg xmlns:xlink="http://www.w3.org/1999/xlink" id="wave" style="transform:rotate(0deg); transition: 0.3s" viewBox="0 0 1440 490" version="1.1" xmlns="http://www.w3.org/2000/svg"><defs><linearGradient id="sw-gradient-0" x1="0" x2="0" y1="1" y2="0"><stop stop-color="rgba(255, 136, 59, 1)" offset="0%"/><stop stop-color="rgba(255, 136, 59, 1)" offset="100%"/></linearGradient></defs><path style="transform:translate(0, 0px); opacity:1" fill="url(#sw-gradient-0)" d="M0,98L24,147C48,196,96,294,144,285.8C192,278,240,163,288,138.8C336,114,384,180,432,171.5C480,163,528,82,576,106.2C624,131,672,261,720,294C768,327,816,261,864,212.3C912,163,960,131,1008,98C1056,65,1104,33,1152,81.7C1200,131,1248,261,1296,294C1344,327,1392,261,1440,196C1488,131,1536,65,1584,65.3C1632,65,1680,131,1728,171.5C1776,212,1824,229,1872,204.2C1920,180,1968,114,2016,98C2064,82,2112,114,2160,155.2C2208,196,2256,245,2304,228.7C2352,212,2400,131,2448,147C2496,163,2544,278,2592,343C2640,408,2688,425,2736,424.7C2784,425,2832,408,2880,400.2C2928,392,2976,392,3024,326.7C3072,261,3120,131,3168,122.5C3216,114,3264,229,3312,261.3C3360,294,3408,245,3432,220.5L3456,196L3456,490L3432,490C3408,490,3360,490,3312,490C3264,490,3216,490,3168,490C3120,490,3072,490,3024,490C2976,490,2928,490,2880,490C2832,490,2784,490,2736,490C2688,490,2640,490,2592,490C2544,490,2496,490,2448,490C2400,490,2352,490,2304,490C2256,490,2208,490,2160,490C2112,490,2064,490,2016,490C1968,490,1920,490,1872,490C1824,490,1776,490,1728,490C1680,490,1632,490,1584,490C1536,490,1488,490,1440,490C1392,490,1344,490,1296,490C1248,490,1200,490,1152,490C1104,490,1056,490,1008,490C960,490,912,490,864,490C816,490,768,490,720,490C672,490,624,490,576,490C528,490,480,490,432,490C384,490,336,490,288,490C240,490,192,490,144,490C96,490,48,490,24,490L0,490Z"/><defs><linearGradient id="sw-gradient-1" x1="0" x2="0" y1="1" y2="0"><stop stop-color="rgba(255, 136, 59, 1)" offset="0%"/><stop stop-color="rgba(255, 136, 59, 1)" offset="100%"/></linearGradient></defs><path style="transform:translate(0, 50px); opacity:0.9" fill="url(#sw-gradient-1)" d="M0,98L24,122.5C48,147,96,196,144,212.3C192,229,240,212,288,212.3C336,212,384,229,432,269.5C480,310,528,376,576,375.7C624,376,672,310,720,294C768,278,816,310,864,334.8C912,359,960,376,1008,318.5C1056,261,1104,131,1152,81.7C1200,33,1248,65,1296,89.8C1344,114,1392,131,1440,155.2C1488,180,1536,212,1584,228.7C1632,245,1680,245,1728,269.5C1776,294,1824,343,1872,343C1920,343,1968,294,2016,277.7C2064,261,2112,278,2160,294C2208,310,2256,327,2304,285.8C2352,245,2400,147,2448,106.2C2496,65,2544,82,2592,73.5C2640,65,2688,33,2736,57.2C2784,82,2832,163,2880,204.2C2928,245,2976,245,3024,228.7C3072,212,3120,180,3168,163.3C3216,147,3264,147,3312,147C3360,147,3408,147,3432,147L3456,147L3456,490L3432,490C3408,490,3360,490,3312,490C3264,490,3216,490,3168,490C3120,490,3072,490,3024,490C2976,490,2928,490,2880,490C2832,490,2784,490,2736,490C2688,490,2640,490,2592,490C2544,490,2496,490,2448,490C2400,490,2352,490,2304,490C2256,490,2208,490,2160,490C2112,490,2064,490,2016,490C1968,490,1920,490,1872,490C1824,490,1776,490,1728,490C1680,490,1632,490,1584,490C1536,490,1488,490,1440,490C1392,490,1344,490,1296,490C1248,490,1200,490,1152,490C1104,490,1056,490,1008,490C960,490,912,490,864,490C816,490,768,490,720,490C672,490,624,490,576,490C528,490,480,490,432,490C384,490,336,490,288,490C240,490,192,490,144,490C96,490,48,490,24,490L0,490Z"/></svg>